<svg width="400" height="308" viewBox="0 0 400 308" fill="none" xmlns="http://www.w3.org/2000/svg">
<g clip-path="url(#clip0)">
<path d="M207.283 307.836C308.205 307.836 390.019 302.458 390.019 295.825C390.019 289.191 308.205 283.813 207.283 283.813C106.361 283.813 24.5479 289.191 24.5479 295.825C24.5479 302.458 106.361 307.836 207.283 307.836Z" fill="#3F3D56"/>
<path opacity="0.1" d="M205.883 301.535C240.683 301.535 268.895 298.538 268.895 294.84C268.895 291.142 240.683 288.145 205.883 288.145C171.082 288.145 142.871 291.142 142.871 294.84C142.871 298.538 171.082 301.535 205.883 301.535Z" fill="black"/>
<path d="M213.177 73.7984C213.177 73.7984 212.19 81.6935 208.736 82.187C205.282 82.6804 191.959 83.1739 190.478 87.1214C189.582 89.5188 188.921 91.9977 188.505 94.5231L209.723 99.4575L231.928 103.405L246.238 102.418C246.238 102.418 246.731 89.0952 239.329 87.1214C231.928 85.1476 226.5 84.1607 226.006 80.7066C225.513 77.2525 225.02 74.7853 225.02 74.7853L213.177 73.7984Z" fill="#FFB9B9"/>
<path d="M217.612 77.524C227.017 77.524 234.642 69.8995 234.642 60.4941C234.642 51.0887 227.017 43.4641 217.612 43.4641C208.206 43.4641 200.582 51.0887 200.582 60.4941C200.582 69.8995 208.206 77.524 217.612 77.524Z" fill="#2F2E41"/>
<path d="M179.129 123.636L161.365 152.749C161.365 152.749 146.068 165.579 152.977 167.553C159.885 169.527 166.793 154.723 166.793 154.723L188.505 130.051L179.129 123.636Z" fill="#FFB9B9"/>
<path d="M252.159 136.466L259.561 164.592C259.561 164.592 276.591 175.904 269.683 175.904C262.774 175.904 254.626 166.072 254.626 166.072L242.29 138.44L252.159 136.466Z" fill="#FFB9B9"/>
<path d="M188.998 184.33C188.998 184.33 188.505 216.404 186.037 218.871C183.57 221.338 182.09 255.386 182.583 262.294C183.077 269.202 181.596 274.63 181.596 275.617C181.596 276.604 189.492 277.098 189.492 277.098L200.841 199.133L188.998 184.33Z" fill="#FFB9B9"/>
<path d="M184.064 272.163L180.61 273.15C180.61 273.15 179.623 281.045 179.129 282.525C178.636 284.006 175.182 294.861 181.596 295.848C188.011 296.835 191.959 291.901 191.959 291.407C191.959 290.914 189.985 282.032 190.478 281.045C190.972 280.058 191.959 272.163 191.959 272.163L184.064 272.163Z" fill="#2F2E41"/>
<path opacity="0.1" d="M184.064 272.163L180.61 273.15C180.61 273.15 179.623 281.045 179.129 282.525C178.636 284.006 175.182 294.861 181.596 295.848C188.011 296.835 191.959 291.901 191.959 291.407C191.959 290.914 189.985 282.032 190.478 281.045C190.972 280.058 191.959 272.163 191.959 272.163L184.064 272.163Z" fill="black"/>
<path d="M233.901 273.643L237.356 274.63C237.356 274.63 238.342 282.525 238.836 284.006C239.329 285.486 242.783 296.342 236.369 297.329C229.954 298.316 226.006 293.381 226.006 292.888C226.006 292.394 227.98 283.512 227.487 282.525C226.993 281.538 226.006 273.643 226.006 273.643L233.901 273.643Z" fill="#2F2E41"/>
<path opacity="0.1" d="M233.901 273.643L237.356 274.63C237.356 274.63 238.342 282.525 238.836 284.006C239.329 285.486 242.783 296.342 236.369 297.329C229.954 298.316 226.006 293.381 226.006 292.888C226.006 292.394 227.98 283.512 227.487 282.525C226.993 281.538 226.006 273.643 226.006 273.643L233.901 273.643Z" fill="black"/>
<path d="M220.085 78.2394C226.626 78.2394 231.928 72.9372 231.928 66.3967C231.928 59.8562 226.626 54.5541 220.085 54.5541C213.545 54.5541 208.242 59.8562 208.242 66.3967C208.242 72.9372 213.545 78.2394 220.085 78.2394Z" fill="#FFB9B9"/>
<path d="M199.36 126.104L197.387 135.972C197.387 135.972 184.064 154.723 186.531 177.915C188.998 201.107 188.505 225.286 188.998 231.701C189.492 238.115 191.959 266.242 187.518 276.111C183.077 285.979 188.998 286.473 189.492 286.473C189.985 286.473 191.465 284.006 194.919 287.953C198.374 291.901 208.242 288.94 208.242 288.94C208.242 288.94 226.5 292.888 233.408 289.434C240.316 285.98 254.626 280.552 253.639 277.098C252.652 273.643 242.784 256.866 245.744 246.997C248.705 237.129 241.797 140.907 233.902 136.959L231.928 127.584L199.36 126.104Z" fill="#2F2E41"/>
<path d="M217.612 62.843C224.098 62.843 229.357 59.688 229.357 55.7961C229.357 51.9042 224.098 48.7492 217.612 48.7492C211.125 48.7492 205.867 51.9042 205.867 55.7961C205.867 59.688 211.125 62.843 217.612 62.843Z" fill="#2F2E41"/>
<path d="M218.786 50.511C222.678 50.511 225.833 47.356 225.833 43.4641C225.833 39.5722 222.678 36.4172 218.786 36.4172C214.894 36.4172 211.739 39.5722 211.739 43.4641C211.739 47.356 214.894 50.511 218.786 50.511Z" fill="#2F2E41"/>
<path d="M209.39 39.647C209.391 37.9051 210.036 36.225 211.201 34.9308C212.367 33.6365 213.971 32.8198 215.703 32.6382C215.459 32.6129 215.214 32.6002 214.969 32.6001C213.1 32.6001 211.308 33.3425 209.986 34.6641C208.665 35.9856 207.922 37.778 207.922 39.647C207.922 41.5159 208.665 43.3083 209.986 44.6299C211.308 45.9514 213.1 46.6939 214.969 46.6939C215.214 46.6938 215.459 46.6811 215.703 46.6558C213.971 46.4742 212.367 45.6575 211.201 44.3632C210.036 43.0689 209.391 41.3888 209.39 39.647V39.647Z" fill="#2F2E41"/>
<path d="M187.518 92.5493L188.505 94.5231C188.505 94.5231 188.011 96.0034 187.518 96.4969C187.024 96.9903 170.247 113.767 175.182 117.222C180.116 120.676 181.596 120.676 181.596 120.676C181.596 120.676 176.662 124.13 177.649 124.623C178.636 125.117 188.505 133.012 189.491 131.531C190.478 130.051 190.972 126.597 190.972 126.597C190.972 126.597 192.946 129.558 194.919 128.571C196.893 127.584 196.893 126.104 196.893 126.104L198.373 128.077L231.928 129.558C231.928 129.558 234.395 131.038 234.395 129.064C234.395 127.09 235.875 136.466 240.316 136.466C240.316 136.466 240.81 141.4 242.29 141.4C243.77 141.4 255.12 137.453 254.133 136.466C253.146 135.479 252.652 132.025 252.652 132.025C252.652 132.025 261.041 127.584 252.652 118.208C252.652 118.208 251.172 109.326 246.238 107.353C246.238 107.353 245.744 105.872 246.238 105.379C246.352 105.293 246.446 105.181 246.51 105.052C246.574 104.924 246.608 104.782 246.608 104.639C246.608 104.495 246.574 104.353 246.51 104.225C246.446 104.096 246.352 103.985 246.238 103.899C245.744 103.405 247.224 103.405 247.224 101.925C247.224 100.444 244.757 99.951 244.757 99.951C244.757 99.951 218.111 88.1083 197.88 90.5755L187.518 92.5493Z" fill="#FF6584"/>
<path d="M382.433 268.965C382.433 288.876 370.598 295.828 355.996 295.828C355.658 295.828 355.32 295.824 354.983 295.817C354.306 295.802 353.636 295.77 352.974 295.725C339.796 294.792 329.558 287.483 329.558 268.965C329.558 249.802 354.047 225.621 355.886 223.831L355.89 223.828C355.96 223.759 355.996 223.725 355.996 223.725C355.996 223.725 382.433 249.054 382.433 268.965Z" fill="#088EFF"/>
<path d="M355.033 292.782L364.702 279.271L355.008 294.265L354.983 295.817C354.306 295.802 353.636 295.77 352.974 295.725L354.016 275.804L354.008 275.65L354.026 275.621L354.124 273.739L344.406 258.708L354.155 272.328L354.177 272.728L354.965 257.677L346.645 242.144L355.066 255.035L355.886 223.831L355.889 223.725V223.828L355.753 248.434L364.035 238.679L355.719 250.554L355.5 264.03L363.233 251.097L355.467 266.013L355.345 273.504L366.572 255.504L355.303 276.119L355.033 292.782Z" fill="#3F3D56"/>
<path d="M107 286.239V240.518" stroke="#3F3D56" stroke-width="2" stroke-miterlimit="10"/>
<path d="M107 246.984C110.571 246.984 113.465 244.089 113.465 240.518C113.465 236.948 110.571 234.053 107 234.053C103.429 234.053 100.534 236.948 100.534 240.518C100.534 244.089 103.429 246.984 107 246.984Z" fill="#3F3D56"/>
<path d="M107 268.697C107 268.697 106.076 248.831 87.1414 251.14Z" fill="#3F3D56"/>
<path d="M54.0654 295.161V144.718" stroke="#3F3D56" stroke-width="2" stroke-miterlimit="10"/>
<path d="M54.0654 151.111C57.6362 151.111 60.5309 148.217 60.5309 144.646C60.5309 141.075 57.6362 138.18 54.0654 138.18C50.4946 138.18 47.5999 141.075 47.5999 144.646C47.5999 148.217 50.4946 151.111 54.0654 151.111Z" fill="#3F3D56"/>
<path d="M34.207 261.448C37.7778 261.448 40.6726 258.553 40.6726 254.982C40.6726 251.411 37.7778 248.517 34.207 248.517C30.6362 248.517 27.7415 251.411 27.7415 254.982C27.7415 258.553 30.6362 261.448 34.207 261.448Z" fill="#3F3D56"/>
<path d="M54.0655 177.672C54.0655 177.672 53.1418 157.806 34.207 160.115Z" fill="#3F3D56"/>
<path d="M54.0655 233.989C54.0655 233.989 53.1418 214.123 34.207 216.433Z" fill="#3F3D56"/>
<path d="M54.0655 293.384C54.0655 293.384 58.2219 256.829 34.207 254.982" stroke="#3F3D56" stroke-width="2" stroke-miterlimit="10"/>
<path d="M73.9267 261.448C77.4976 261.448 80.3923 258.553 80.3923 254.982C80.3923 251.411 77.4976 248.517 73.9267 248.517C70.3559 248.517 67.4612 251.411 67.4612 254.982C67.4612 258.553 70.3559 261.448 73.9267 261.448Z" fill="#3F3D56"/>
<path d="M54.0683 293.384C54.0683 293.384 49.9119 256.829 73.9268 254.982" stroke="#3F3D56" stroke-width="2" stroke-miterlimit="10"/>
<path d="M74.3205 200.799C77.8914 200.799 80.7861 197.904 80.7861 194.333C80.7861 190.762 77.8914 187.868 74.3205 187.868C70.7497 187.868 67.855 190.762 67.855 194.333C67.855 197.904 70.7497 200.799 74.3205 200.799Z" fill="#3F3D56"/>
<path d="M54.4621 232.734C54.4621 232.734 50.3057 196.18 74.3206 194.333" stroke="#3F3D56" stroke-width="2" stroke-miterlimit="10"/>
<path d="M97.4988 56.3133C97.4988 56.3133 94.4463 50.7891 90.6946 53.4577C86.9429 56.1262 91.9747 59.3659 91.9747 59.3659L97.6269 56.9041" fill="#3F3D56"/>
<path d="M57.5789 140.426L58.2386 152.036C58.2386 152.036 72.1426 139.126 88.5772 143.607C88.5772 143.607 110.94 118.349 132.052 118.724C132.052 118.724 137.793 99.5418 171.755 87.8535C171.755 87.8535 174.414 68.7208 190.779 61.4636L179.534 55.2403L159.397 56.5105L132.062 67.3815L98.5524 92.5798L60.3164 118.802L57.5789 140.426Z" fill="#088EFF"/>
<path opacity="0.1" d="M57.5789 140.426L58.2386 152.036C58.2386 152.036 72.1426 139.126 88.5772 143.607C88.5772 143.607 110.94 118.349 132.052 118.724C132.052 118.724 137.793 99.5418 171.755 87.8535C171.755 87.8535 174.414 68.7208 190.779 61.4636L179.534 55.2403L159.397 56.5105L132.062 67.3815L98.5524 92.5798L60.3164 118.802L57.5789 140.426Z" fill="black"/>
<path d="M112.702 95.081L156.856 164.69C156.856 164.69 164.271 176.073 172.572 168.707C177.563 164.279 176.371 159.178 174.626 155.813C172.763 152.22 167.288 154.384 168.437 158.266C168.456 158.329 168.475 158.392 168.495 158.456C168.495 158.456 168.817 166.77 163.223 162.734C161.942 161.791 160.86 160.604 160.038 159.243L118.945 92.4913L112.702 95.081Z" fill="#3F3D56"/>
<path opacity="0.1" d="M80.9163 116.813C80.9163 116.813 83.1613 138.595 88.5771 143.607Z" fill="black"/>
<path opacity="0.1" d="M150.81 68.2678C150.81 68.2678 168.574 81.7386 171.755 87.8536Z" fill="black"/>
<path d="M93.5945 56.85C93.5945 56.85 87.5287 63.1127 82.4674 65.4464C82.4674 65.4464 42.1438 102.018 58.4699 151.676C58.4699 151.676 62.3399 126.714 78.4692 126.931C78.4692 126.931 87.7058 103.899 119.147 97.7053C119.147 97.7053 128.896 77.0365 162.573 69.74C162.573 69.74 170.263 53.8469 191.011 61.1043C191.011 61.1043 164.68 30.933 107.341 48.9232C107.341 48.9232 97.1394 56.0819 93.5945 56.85Z" fill="#088EFF"/>
<path opacity="0.1" d="M82.2359 65.8058C82.2359 65.8058 66.3428 95.2286 78.2378 127.29Z" fill="black"/>
<path opacity="0.1" d="M118.916 98.0647C106.839 85.3557 98.3845 71.7213 93.363 57.2094Z" fill="black"/>
<path opacity="0.1" d="M162.341 70.0993C162.341 70.0993 141.01 45.873 107.197 49.685Z" fill="black"/>
<path d="M292.133 7.69862C291.415 10.7054 290.508 11.4211 289.649 11.2159C288.79 11.0108 288.304 9.96247 289.022 6.95568C289.74 3.9489 292.249 0.327374 292.249 0.327374C292.249 0.327374 292.851 4.69183 292.133 7.69862Z" fill="#F2F2F2"/>
<path d="M399.648 34.4788C398.93 37.4856 398.023 38.2012 397.164 37.9961C396.305 37.791 395.819 36.7427 396.537 33.7359C397.255 30.7291 399.764 27.1076 399.764 27.1076C399.764 27.1076 400.366 31.472 399.648 34.4788Z" fill="#F2F2F2"/>
<path d="M106.216 37.2851C105.039 42.2127 103.553 43.3855 102.145 43.0493C100.737 42.7131 99.9407 40.9952 101.117 36.0676C102.294 31.14 106.406 25.2049 106.406 25.2049C106.406 25.2049 107.393 32.3575 106.216 37.2851Z" fill="#F2F2F2"/>
<path d="M62.8951 57.764C61.7183 62.6916 60.2318 63.8645 58.8239 63.5283C57.4161 63.1921 56.6199 61.4741 57.7967 56.5465C58.9734 51.6189 63.0853 45.6839 63.0853 45.6839C63.0853 45.6839 64.0718 52.8364 62.8951 57.764Z" fill="#F2F2F2"/>
<path d="M23.9063 133.379C22.7295 138.306 21.2431 139.479 19.8352 139.143C18.4273 138.807 17.6311 137.089 18.8079 132.161C19.9846 127.234 24.0965 121.299 24.0965 121.299C24.0965 121.299 25.083 128.451 23.9063 133.379Z" fill="#F2F2F2"/>
<path d="M20.7557 219.233C19.5789 224.16 18.0924 225.333 16.6845 224.997C15.2767 224.661 14.4805 222.943 15.6573 218.015C16.834 213.088 20.9459 207.153 20.9459 207.153C20.9459 207.153 21.9324 214.305 20.7557 219.233Z" fill="#F2F2F2"/>
<path d="M319.276 52.2505C318.099 57.1781 316.613 58.3509 315.205 58.0147C313.797 57.6785 313.001 55.9605 314.178 51.033C315.354 46.1054 319.466 40.1703 319.466 40.1703C319.466 40.1703 320.453 47.3229 319.276 52.2505Z" fill="#F2F2F2"/>
<path d="M190.889 30.1962C189.712 35.1238 188.225 36.2967 186.818 35.9604C185.41 35.6242 184.614 33.9063 185.79 28.9787C186.967 24.0511 191.079 18.116 191.079 18.116C191.079 18.116 192.065 25.2686 190.889 30.1962Z" fill="#F2F2F2"/>
<path d="M314.156 93.2084C312.98 98.136 311.493 99.3088 310.085 98.9726C308.677 98.6364 307.881 96.9185 309.058 91.9909C310.235 87.0633 314.346 81.1282 314.346 81.1282C314.346 81.1282 315.333 88.2808 314.156 93.2084Z" fill="#F2F2F2"/>
<path d="M367.323 12.0802C366.146 17.0078 364.66 18.1807 363.252 17.8444C361.844 17.5082 361.048 15.7903 362.224 10.8627C363.401 5.93511 367.513 4.1008e-05 367.513 4.1008e-05C367.513 4.1008e-05 368.5 7.1526 367.323 12.0802Z" fill="#F2F2F2"/>
<path d="M369.323 66.7725C368.605 69.7793 367.698 70.495 366.839 70.2899C365.98 70.0847 365.494 69.0364 366.212 66.0296C366.93 63.0228 369.439 59.4013 369.439 59.4013C369.439 59.4013 370.041 63.7658 369.323 66.7725Z" fill="#F2F2F2"/>
<path d="M247.631 66.7725C246.913 69.7793 246.006 70.495 245.147 70.2899C244.287 70.0847 243.802 69.0364 244.52 66.0296C245.238 63.0228 247.747 59.4013 247.747 59.4013C247.747 59.4013 248.349 63.7658 247.631 66.7725Z" fill="#F2F2F2"/>
<path d="M190.132 231.392C189.414 234.399 188.507 235.114 187.648 234.909C186.789 234.704 186.303 233.656 187.021 230.649C187.739 227.642 190.248 224.021 190.248 224.021C190.248 224.021 190.85 228.385 190.132 231.392Z" fill="#F2F2F2"/>
<path d="M318.126 129.391C317.408 132.398 316.501 133.113 315.641 132.908C314.782 132.703 314.297 131.655 315.015 128.648C315.733 125.641 318.242 122.02 318.242 122.02C318.242 122.02 318.844 126.384 318.126 129.391Z" fill="#F2F2F2"/>
<path d="M71.1966 10.8492C70.4786 13.856 69.5715 14.5717 68.7125 14.3665C67.8534 14.1614 67.3676 13.1131 68.0856 10.1063C68.8036 7.09951 71.3127 3.47799 71.3127 3.47799C71.3127 3.47799 71.9147 7.84244 71.1966 10.8492Z" fill="#F2F2F2"/>
<path d="M44.0228 114.819C43.3048 117.826 42.3977 118.542 41.5386 118.337C40.6795 118.132 40.1937 117.083 40.9118 114.076C41.6298 111.07 44.1389 107.448 44.1389 107.448C44.1389 107.448 44.7408 111.813 44.0228 114.819Z" fill="#F2F2F2"/>
<path d="M65.2894 91.9774C64.5714 94.9842 63.6643 95.6999 62.8052 95.4947C61.9461 95.2896 61.4603 94.2413 62.1784 91.2345C62.8964 88.2277 65.4055 84.6062 65.4055 84.6062C65.4055 84.6062 66.0074 88.9706 65.2894 91.9774Z" fill="#F2F2F2"/>
<path d="M114.911 54.1701C114.193 57.1769 113.286 57.8925 112.427 57.6874C111.568 57.4822 111.082 56.4339 111.8 53.4272C112.518 50.4204 115.028 46.7989 115.028 46.7989C115.028 46.7989 115.63 51.1633 114.911 54.1701Z" fill="#F2F2F2"/>
<path d="M57.0189 148.688C56.3008 151.695 55.3938 152.411 54.5347 152.206C53.6756 152.001 53.1898 150.952 53.9079 147.945C54.6259 144.939 57.135 141.317 57.135 141.317C57.135 141.317 57.7369 145.682 57.0189 148.688Z" fill="#F2F2F2"/>
<path d="M25.9066 184.133C25.1885 187.14 24.2815 187.855 23.4224 187.65C22.5633 187.445 22.0775 186.397 22.7956 183.39C23.5136 180.383 26.0227 176.762 26.0227 176.762C26.0227 176.762 26.6246 181.126 25.9066 184.133Z" fill="#F2F2F2"/>
<path d="M3.45858 198.704C2.74054 201.711 1.8335 202.427 0.974415 202.222C0.115335 202.016 -0.37047 200.968 0.347566 197.961C1.0656 194.955 3.57466 191.333 3.57466 191.333C3.57466 191.333 4.17662 195.697 3.45858 198.704Z" fill="#F2F2F2"/>
<path d="M235.422 171.924C234.704 174.931 233.797 175.647 232.938 175.441C232.079 175.236 231.593 174.188 232.311 171.181C233.029 168.174 235.538 164.553 235.538 164.553C235.538 164.553 236.14 168.917 235.422 171.924Z" fill="#F2F2F2"/>
<path d="M229.515 105.368C228.797 108.374 227.89 109.09 227.031 108.885C226.171 108.68 225.686 107.631 226.404 104.625C227.122 101.618 229.631 97.9963 229.631 97.9963C229.631 97.9963 230.233 102.361 229.515 105.368Z" fill="#F2F2F2"/>
<path d="M347.663 178.619C346.945 181.626 346.038 182.342 345.179 182.136C344.319 181.931 343.834 180.883 344.552 177.876C345.27 174.869 347.779 171.248 347.779 171.248C347.779 171.248 348.381 175.612 347.663 178.619Z" fill="#F2F2F2"/>
<path d="M314.156 219.233C312.98 224.16 311.493 225.333 310.085 224.997C308.677 224.661 307.881 222.943 309.058 218.015C310.235 213.088 314.346 207.153 314.346 207.153C314.346 207.153 315.333 214.305 314.156 219.233Z" fill="#F2F2F2"/>
<path d="M269.26 203.874C268.083 208.801 266.597 209.974 265.189 209.638C263.781 209.302 262.985 207.584 264.162 202.656C265.338 197.728 269.45 191.793 269.45 191.793C269.45 191.793 270.437 198.946 269.26 203.874Z" fill="#F2F2F2"/>
<path d="M379.925 139.68C378.748 144.607 377.262 145.78 375.854 145.444C374.446 145.108 373.65 143.39 374.827 138.462C376.003 133.535 380.115 127.6 380.115 127.6C380.115 127.6 381.102 134.752 379.925 139.68Z" fill="#F2F2F2"/>
<path d="M383.895 184.92C383.177 187.927 382.27 188.643 381.41 188.438C380.551 188.233 380.066 187.184 380.784 184.177C381.502 181.171 384.011 177.549 384.011 177.549C384.011 177.549 384.613 181.914 383.895 184.92Z" fill="#F2F2F2"/>
<path d="M227.546 229.029C226.828 232.036 225.921 232.751 225.062 232.546C224.202 232.341 223.717 231.293 224.435 228.286C225.153 225.279 227.662 221.658 227.662 221.658C227.662 221.658 228.264 226.022 227.546 229.029Z" fill="#F2F2F2"/>
<path d="M268.11 166.411C267.392 169.417 266.485 170.133 265.626 169.928C264.766 169.723 264.281 168.674 264.999 165.668C265.717 162.661 268.226 159.039 268.226 159.039C268.226 159.039 268.828 163.404 268.11 166.411Z" fill="#F2F2F2"/>
<path d="M233.453 52.5948C232.735 55.6016 231.828 56.3172 230.969 56.1121C230.11 55.9069 229.624 54.8586 230.342 51.8519C231.06 48.8451 233.569 45.2236 233.569 45.2236C233.569 45.2236 234.171 49.588 233.453 52.5948Z" fill="#F2F2F2"/>
<path d="M281.106 260.929C280.388 263.936 279.481 264.651 278.622 264.446C277.763 264.241 277.277 263.193 277.995 260.186C278.713 257.179 281.222 253.558 281.222 253.558C281.222 253.558 281.824 257.922 281.106 260.929Z" fill="#F2F2F2"/>
<path d="M225.577 13.2122C224.858 16.219 223.951 16.9346 223.092 16.7295C222.233 16.5243 221.747 15.476 222.465 12.4693C223.184 9.46246 225.693 5.84094 225.693 5.84094C225.693 5.84094 226.295 10.2054 225.577 13.2122Z" fill="#F2F2F2"/>
<path d="M279.137 117.576C278.419 120.583 277.512 121.299 276.653 121.093C275.794 120.888 275.308 119.84 276.026 116.833C276.744 113.826 279.253 110.205 279.253 110.205C279.253 110.205 279.855 114.569 279.137 117.576Z" fill="#F2F2F2"/>
</g>
<defs>
<clipPath id="clip0">
<rect width="400" height="307.836" fill="white"/>
</clipPath>
</defs>
</svg>
